<svg width="362" height="64" viewBox="0 0 362 64" fill="none" xmlns="http://www.w3.org/2000/svg">
<path fill-rule="evenodd" clip-rule="evenodd" d="M5 0.682933V27.2373H11.8196V11.0975L19.1803 27.2373H22.3315L29.7042 11.0975V27.2373H36.5117V0.682933H28.1888L20.828 16.6179L13.4192 0.682933H5ZM63.273 22.2292L64.908 27.2373H72.3535L63.1525 0.682933H52.3996L43.2107 27.2373H50.7044L52.2791 22.2292H63.273ZM61.6007 17.1187H53.9514L57.7399 5.61138H57.8122L61.6007 17.1187ZM79.2093 0.682933V27.2373L86.4136 27.2828V17.039H91.4766C95.9028 17.039 98.8497 15.6504 100.16 12.8617C100.703 11.5969 100.977 10.2431 100.966 8.87807C100.996 7.43751 100.722 6.0058 100.16 4.66667C98.8497 1.88943 95.9028 0.682933 91.4766 0.682933H79.2093ZM89.4557 12.1106H86.4257V5.75934H89.4196C91.4163 5.75934 92.6919 6.08943 93.2442 7.22764C93.46 7.76543 93.5661 8.33699 93.5577 8.91219C93.5649 9.49094 93.4588 10.066 93.2442 10.6081C92.6919 11.6667 91.4163 12.1106 89.4557 12.1106ZM108.291 0.682933V27.2373H115.11V11.0975L122.483 27.2373H125.634L132.995 11.0975V27.2373H139.815V0.682933H131.492L124.071 16.6179L116.71 0.682933H108.291ZM155.606 15.8553V27.2373L162.823 27.1805V15.7983L171.951 0.682933H164.133L159.203 9.36747L154.26 0.682933H146.454L155.606 15.8553ZM178.567 0.682933V27.2373L185.784 27.2601V16.6179H194.395V11.0975H185.784V6.28293H194.467V0.682933H178.567ZM202.26 0.682933V27.2373H209.476V0.682933H202.26ZM222.599 6.28293V27.2373H229.815V6.28293H235.829V0.682933H216.586V6.28293H222.599ZM242.901 0.682933V27.2373H249.926V10.9268L260.954 27.2373H268.243V0.682933H261.231V17.0845L250.117 0.682933H242.901ZM277.034 0.682933V27.2373H295.677V21.6715H284.239V16.4357H295.557V11.0975H284.239V6.24877H295.677V0.682933H277.034ZM303.266 22.8325C304.746 25.917 308.45 27.9431 314.259 27.9431L314.271 28C319.78 28 323.917 26.1789 325.565 22.9007C326.074 21.7593 326.332 20.5317 326.323 19.2927C326.352 18.1434 326.118 17.0019 325.638 15.9463C324.41 13.2715 321.296 12.1106 317.796 11.2114C317.136 11.0299 316.49 10.8682 315.87 10.7137C313.385 10.0926 311.352 9.58473 310.783 8.35444C310.632 8.03255 310.562 7.68191 310.579 7.33007C310.566 6.99323 310.636 6.65822 310.783 6.35122C311.216 5.45203 312.371 4.92846 314.007 4.92846C314.658 4.84384 315.32 4.95015 315.905 5.23305C316.49 5.51595 316.97 5.96184 317.278 6.51057C317.55 7.12985 317.669 7.79921 317.627 8.46832H325.12C325.154 7.21251 324.895 5.96503 324.362 4.81464C322.846 1.65041 319.191 0 314.283 0C309.148 0 305.36 1.87805 303.928 4.89431C303.454 5.92522 303.209 7.0369 303.206 8.16092C303.183 9.20944 303.4 10.2503 303.844 11.2114C304.998 13.5789 307.632 14.8537 310.579 15.6846C311.319 15.9088 312.067 16.1028 312.789 16.2905C315.255 16.9312 317.44 17.4985 318.156 18.9512C318.316 19.3111 318.395 19.699 318.385 20.0894C318.402 20.5025 318.324 20.9142 318.156 21.296C317.781 21.8473 317.249 22.2872 316.621 22.565C315.994 22.843 315.296 22.9475 314.608 22.8666C312.648 22.8666 311.421 22.2292 310.855 21.0228C310.582 20.4202 310.457 19.7658 310.495 19.1106H302.509C302.479 20.388 302.738 21.6566 303.266 22.8325ZM333.335 22.8325C334.803 25.917 338.507 27.9431 344.328 27.9431L344.34 28C349.836 28 353.986 26.1789 355.574 22.9236C356.09 21.7842 356.348 20.5551 356.331 19.3154C356.359 18.1675 356.13 17.027 355.657 15.9691C354.419 13.2943 351.315 12.1333 347.804 11.2341C347.147 11.0533 346.502 10.892 345.886 10.738C343.401 10.1162 341.37 9.60858 340.791 8.37727C340.649 8.05309 340.584 7.70347 340.6 7.35284C340.586 7.01712 340.652 6.68283 340.791 6.37398C341.133 5.85803 341.623 5.44678 342.207 5.19017C342.789 4.93357 343.439 4.84265 344.075 4.92846C344.725 4.84463 345.385 4.95141 345.968 5.23435C346.551 5.51729 347.028 5.96277 347.335 6.51057C347.61 7.12895 347.733 7.79829 347.696 8.46832H355.188C355.223 7.21251 354.964 5.96503 354.431 4.81464C352.915 1.65041 349.247 0 344.352 0C339.203 0 335.427 1.87805 333.984 4.89431C333.515 5.92605 333.274 7.03769 333.275 8.16092C333.251 9.20944 333.469 10.2503 333.912 11.2114C335.067 13.5789 337.701 14.8537 340.647 15.6846C341.39 15.9101 342.138 16.1048 342.864 16.2935C345.323 16.9329 347.506 17.5008 348.213 18.9512C348.377 19.3102 348.459 19.6981 348.453 20.0894C348.472 20.5037 348.389 20.9164 348.213 21.296C347.696 22.3089 346.421 22.8666 344.664 22.8666C342.716 22.8666 341.477 22.2292 340.924 21.0228C340.649 20.4202 340.526 19.7658 340.564 19.1106H332.577C332.548 20.388 332.806 21.6566 333.335 22.8325Z" fill="black"/>
<path d="M190.147 64C196.722 64 201.096 59.3142 201.602 53.0157H202.715V59.909C202.715 62.6599 204.662 63.7273 207.216 63.7273C209.264 63.7273 211.01 62.4882 211.845 61.0235V63.5297H217.939V60.3299H216.066V53.0157H219.049V58.67C219.049 62.0415 220.416 63.7273 223.577 63.7273C225.397 63.7273 226.385 62.8597 227.092 61.8675V63.5297H229.924V61.7194C231.392 63.2547 232.833 63.7273 234.982 63.7273C236.956 63.7273 238.575 63.0572 239.431 61.8182V63.5297H248.663V61.4726C249.625 62.8856 251.318 63.7037 253.517 63.7037C255.491 63.7037 256.755 62.8856 257.743 61.3973V63.5297H264.367V61.4208C265.683 63.1301 267.631 63.826 270.232 63.826C273.822 63.826 277.161 62.3871 277.667 58.4208H273.494C273.165 60.1324 272.355 60.9506 270.511 60.9506C268.966 60.9506 267.88 60.0314 267.803 57.4051H277.54V56.8339C277.54 52.3715 274.832 49.5713 270.511 49.5713C266.489 49.5713 263.227 52.2986 263.227 56.6857C263.227 58.0494 263.431 59.3142 263.911 60.304H261.99V45.1324H255.236V48.4052H257.74V51.7531C256.925 50.5188 255.522 49.7806 254.021 49.7947C249.874 49.7947 247.649 52.67 247.649 56.587C247.632 57.8589 247.836 59.1262 248.253 60.3322H246.004V49.7947H236.14V51.5039C235.356 50.413 234.219 49.6701 232.246 49.6701C229.869 49.6701 228.351 50.3895 227.62 51.3558V49.7453H223.37V46.1246H220.008C220.008 48.5791 219.349 49.7429 216.039 49.7429H209.516V53.0885H211.816V57.377C211.816 59.0886 210.931 60.4005 209.034 60.4005C207.416 60.4005 206.986 59.3331 206.986 57.9224V49.7406H201.399C200.389 44.3895 196.468 40 190.147 40C182.863 40 178.667 45.2312 178.667 52.1222C178.667 58.8182 183.245 64 190.147 64ZM234.121 61.0987C232.126 61.0987 231.212 60.2053 230.277 58.717H225.497C225.572 60.2312 225.548 61.0729 224.509 61.0729C223.471 61.0729 223.373 60.0548 223.373 59.2366V53.0157H227.217C227.195 53.239 227.188 53.4623 227.193 53.6857C227.193 59.9584 235.965 57.431 235.965 60.0078C235.968 60.8989 234.905 61.0987 234.121 61.0987ZM239.886 60.304C239.939 59.9584 239.965 59.6105 239.963 59.2625C239.963 53.2884 231.088 55.7171 231.088 53.2625C231.088 52.4443 232.176 52.2962 233.162 52.2962C234.553 52.2962 235.361 52.7171 235.994 54.0055H239.637V53.0133H242.141V60.3017H239.886V60.304ZM190.78 60.4028C187.341 60.4263 185.24 55.0493 185.24 50.3119C185.24 47.5847 186.302 43.4467 189.463 43.4467C193.662 43.4467 195.053 50.0909 195.053 53.3142C195.053 56.3636 194.043 60.4028 190.78 60.4028ZM255.059 60.5274C252.757 60.5274 252.251 58.2704 252.251 56.4365C252.251 54.652 252.959 52.6936 255.136 52.6936C256.856 52.6936 257.743 54.3041 257.743 55.9169V57.2805C257.74 58.8675 256.906 60.5274 255.059 60.5274ZM267.88 55.1998C268.182 53.192 269.244 52.4232 270.534 52.4232C272.278 52.4232 272.911 53.4412 273.035 55.1998H267.88ZM242.009 48.7249H246.006V45.1301H242.009V48.7249Z" fill="black"/>
<path d="M82.6666 57.4115V49.6406H85.58C86.1102 49.6406 86.5807 49.7368 86.99 49.9277C87.3993 50.1186 87.7184 50.3977 87.9488 50.7617C88.1792 51.1274 88.2952 51.5701 88.2952 52.0914C88.2952 52.6126 88.1776 53.0457 87.944 53.4114C87.7103 53.7771 87.3896 54.0561 86.9852 54.2502C86.5791 54.4443 86.1118 54.5421 85.5816 54.5421H84.0943V57.4099H82.6698L82.6666 57.4115ZM84.0911 53.2911H85.5994C85.8572 53.2911 86.0812 53.2414 86.2697 53.1403C86.4583 53.0393 86.6049 52.8981 86.7096 52.7185C86.8144 52.5372 86.8675 52.3287 86.8675 52.093C86.8675 51.8572 86.8144 51.6391 86.7096 51.4626C86.6049 51.2862 86.4583 51.1467 86.2697 51.0456C86.0812 50.9446 85.8572 50.8949 85.5994 50.8949H84.0911V53.2943V53.2911Z" fill="#222222"/>
<path d="M95.3988 57.5367C94.8268 57.5367 94.2918 57.4356 93.7955 57.2335C93.2992 57.0315 92.8657 56.7508 92.4967 56.3883C92.1261 56.0274 91.8376 55.6008 91.633 55.11C91.4267 54.6192 91.3236 54.0899 91.3236 53.5189C91.3236 52.9479 91.4251 52.4107 91.6282 51.9231C91.8312 51.4371 92.1164 51.012 92.487 50.6512C92.8577 50.2903 93.2895 50.0096 93.7858 49.8123C94.2821 49.6135 94.8203 49.5156 95.3988 49.5156C95.9773 49.5156 96.5172 49.6167 97.0119 49.8188C97.5082 50.0209 97.9416 50.2999 98.3106 50.6576C98.6813 51.0153 98.9697 51.4387 99.176 51.9247C99.3822 52.4123 99.4854 52.9431 99.4854 53.5205C99.4854 54.0979 99.3806 54.6208 99.1711 55.1116C98.9616 55.6024 98.6716 56.0274 98.301 56.3899C97.9304 56.7508 97.5001 57.0331 97.007 57.2352C96.5139 57.4372 95.9789 57.5383 95.3988 57.5383V57.5367ZM95.3988 56.2439C95.7824 56.2439 96.1353 56.1766 96.4575 56.0403C96.7782 55.9055 97.0602 55.7147 97.3003 55.4725C97.542 55.2287 97.7257 54.94 97.8562 54.6064C97.9851 54.2728 98.0496 53.9119 98.0496 53.5221C98.0496 53.1324 97.9851 52.7731 97.8562 52.4427C97.7273 52.1123 97.542 51.8236 97.3003 51.5766C97.0586 51.3296 96.7782 51.1404 96.4575 51.0088C96.1369 50.8773 95.784 50.81 95.3988 50.81C95.0137 50.81 94.6721 50.8757 94.3514 51.0088C94.0292 51.1404 93.7488 51.3312 93.5071 51.5766C93.2653 51.8236 93.0784 52.1123 92.9463 52.4427C92.8142 52.7731 92.7465 53.1324 92.7465 53.5221C92.7465 53.9119 92.8125 54.2728 92.9463 54.6064C93.0784 54.94 93.2653 55.2287 93.5071 55.4725C93.7488 55.7163 94.0292 55.9055 94.3514 56.0403C94.6721 56.1766 95.0218 56.2439 95.3988 56.2439Z" fill="#222222"/>
<path d="M104.099 57.4115L102.003 49.6406H103.532L105.177 56.2631H104.779L106.498 49.6406H107.976L109.684 56.2631H109.286L110.931 49.6406H112.461L110.366 57.4115H108.732L107.003 50.9654H107.464L105.735 57.4115H104.101H104.099Z" fill="#222222"/>
<path d="M115.425 57.4115V49.6406H120.613V50.8916H116.85V52.8837H120.401V54.1347H116.85V56.1588H120.613V57.4099H115.425V57.4115Z" fill="#222222"/>
<path d="M123.753 57.4115V49.6406H126.655C127.185 49.6406 127.655 49.7368 128.065 49.9277C128.474 50.1186 128.793 50.3977 129.024 50.7617C129.254 51.1274 129.37 51.5701 129.37 52.0914C129.37 52.6126 129.243 53.0826 128.988 53.4579C128.734 53.8332 128.389 54.1123 127.955 54.2919L129.747 57.4099H128.134L126.217 54L127.138 54.5421H125.179V57.4099H123.754L123.753 57.4115ZM125.177 53.2911H126.676C126.934 53.2911 127.158 53.2414 127.346 53.1403C127.535 53.0393 127.681 52.8981 127.786 52.7185C127.891 52.5372 127.942 52.3287 127.942 52.093C127.942 51.8572 127.889 51.6391 127.786 51.4626C127.681 51.2846 127.535 51.1467 127.346 51.0456C127.158 50.9446 126.934 50.8949 126.676 50.8949H125.177V53.2943V53.2911Z" fill="#222222"/>
<path d="M132.777 57.4115V49.6406H137.964V50.8916H134.201V52.8837H137.753V54.1347H134.201V56.1588H137.964V57.4099H132.777V57.4115Z" fill="#222222"/>
<path d="M141.105 57.4115V49.6406H143.651C144.477 49.6406 145.194 49.8058 145.804 50.1362C146.415 50.4666 146.889 50.9221 147.224 51.5027C147.559 52.0833 147.727 52.7554 147.727 53.5204C147.727 54.2855 147.559 54.9511 147.224 55.5381C146.889 56.1252 146.415 56.5855 145.804 56.9143C145.194 57.2447 144.475 57.4099 143.651 57.4099H141.105V57.4115ZM142.53 56.1604H143.682C144.212 56.1604 144.671 56.0514 145.06 55.8316C145.448 55.6119 145.75 55.3072 145.965 54.9142C146.181 54.5213 146.291 54.0577 146.291 53.522C146.291 52.9863 146.183 52.5132 145.965 52.1251C145.75 51.7353 145.447 51.4338 145.06 51.2172C144.673 51.0007 144.212 50.8933 143.682 50.8933H142.53V56.1604Z" fill="#222222"/>
<path d="M154.918 57.4115V49.6406H158.208C158.725 49.6406 159.167 49.7288 159.534 49.9069C159.902 50.0849 160.184 50.3351 160.383 50.6575C160.583 50.9815 160.682 51.3728 160.682 51.8315C160.682 52.186 160.585 52.518 160.393 52.8276C160.201 53.1371 159.895 53.3921 159.476 53.5942V52.9366C159.86 53.0826 160.164 53.2638 160.388 53.4787C160.612 53.6936 160.769 53.9342 160.86 54.1989C160.951 54.4635 160.997 54.741 160.997 55.0329C160.997 55.7771 160.751 56.3593 160.259 56.7795C159.766 57.1998 159.085 57.4099 158.211 57.4099H154.921L154.918 57.4115ZM156.342 52.6559H158.281C158.574 52.6559 158.808 52.5709 158.983 52.4009C159.157 52.2309 159.246 52.0096 159.246 51.7385C159.246 51.4675 159.159 51.2525 158.983 51.0921C158.809 50.9317 158.574 50.8516 158.281 50.8516H156.342V52.6559ZM156.342 56.1604H158.355C158.725 56.1604 159.02 56.0578 159.239 55.8525C159.46 55.6472 159.57 55.3745 159.57 55.0345C159.57 54.6945 159.46 54.4186 159.239 54.2101C159.019 54.0016 158.724 53.8973 158.355 53.8973H156.342V56.1604Z" fill="#222222"/>
<path d="M165.825 57.4115V53.9695L163.196 49.6406H164.82L166.832 53.02H166.256L168.257 49.6406H169.881L167.261 53.9583V57.4099H165.825V57.4115Z" fill="#222222"/>
</svg>
