<svg width="94" height="24" viewBox="0 0 94 24" fill="none" xmlns="http://www.w3.org/2000/svg">
<path d="M10.8649 23.3841C17.0883 23.3841 21.2282 18.8571 21.707 12.7719H22.7602V19.4317C22.7602 22.0894 24.6032 23.1206 27.0203 23.1206C28.9586 23.1206 30.611 21.9235 31.4008 20.5084V22.9298H37.168V19.8383H35.3954V12.7719H38.2189V18.2347C38.2189 21.4919 39.5126 23.1206 42.504 23.1206C44.2267 23.1206 45.1617 22.2824 45.8313 21.3239V22.9298H48.5118V21.1808C49.9008 22.664 51.2649 23.1206 53.2985 23.1206C55.1665 23.1206 56.6985 22.4732 57.5087 21.2762V22.9298H66.2467V20.9423C67.1569 22.3074 68.7597 23.0979 70.8405 23.0979C72.7087 23.0979 73.9045 22.3074 74.8399 20.8696V22.9298H81.1088V20.8923C82.3549 22.5436 84.198 23.216 86.66 23.216C90.058 23.216 93.2176 21.8259 93.6963 17.994H89.7473C89.4359 19.6476 88.6691 20.438 86.9236 20.438C85.4617 20.438 84.4339 19.5499 84.3609 17.0127H93.5762V16.4607C93.5762 12.1496 91.0135 9.44429 86.9236 9.44429C83.1173 9.44429 80.0306 12.0791 80.0306 16.3176C80.0306 17.6351 80.2238 18.8571 80.6773 19.8133H78.8594V5.15581H72.4678V8.31767H74.8374V11.5521C74.0662 10.3597 72.7383 9.64645 71.3173 9.66005C67.3928 9.66005 65.2868 12.438 65.2868 16.2222C65.2711 17.451 65.4642 18.6754 65.8586 19.8406H63.73V9.66005H54.3948V11.3114C53.6526 10.2574 52.5768 9.53967 50.7089 9.53967C48.4596 9.53967 47.0229 10.2348 46.3306 11.1683V9.61233H42.3088V6.11435H39.1267C39.1267 8.48571 38.5026 9.61006 35.3705 9.61006H29.197V12.8423H31.3735V16.9855C31.3735 18.6391 30.536 19.9065 28.7407 19.9065C27.2087 19.9065 26.8024 18.8753 26.8024 17.5124V9.60779H21.5141C20.5586 4.43803 16.8477 0.197266 10.8649 0.197266C3.97191 0.197266 0 5.2512 0 11.9088C0 18.3778 4.33279 23.3841 10.8649 23.3841ZM52.4837 20.5811C50.5954 20.5811 49.7306 19.7179 48.8454 18.2801H44.322C44.3924 19.7429 44.3697 20.5561 43.3869 20.5561C42.4041 20.5561 42.311 19.5726 42.311 18.7821V12.7719H45.9494C45.9289 12.9877 45.9221 13.2035 45.9266 13.4193C45.9266 19.4795 54.2291 17.0377 54.2291 19.5272C54.2313 20.388 53.2259 20.5811 52.4837 20.5811ZM57.94 19.8133C57.9899 19.4795 58.0148 19.1433 58.0126 18.8071C58.0126 13.0354 49.6126 15.3818 49.6126 13.0104C49.6126 12.22 50.643 12.0769 51.5758 12.0769C52.8922 12.0769 53.6571 12.4835 54.2563 13.7282H57.7039V12.7697H60.0735V19.8111H57.94V19.8133ZM11.464 19.9088C8.20938 19.9314 6.22115 14.7367 6.22115 10.1598C6.22115 7.52493 7.22658 3.52718 10.218 3.52718C14.1922 3.52718 15.5086 9.94627 15.5086 13.0604C15.5086 16.0064 14.5531 19.9088 11.464 19.9088ZM72.2999 20.0292C70.1215 20.0292 69.6422 17.8486 69.6422 16.0769C69.6422 14.3528 70.3121 12.4607 72.3728 12.4607C74.0001 12.4607 74.8399 14.0167 74.8399 15.5749V16.8923C74.8374 18.4255 74.0479 20.0292 72.2999 20.0292ZM84.4339 14.8821C84.7194 12.9423 85.7253 12.1995 86.9462 12.1995C88.5961 12.1995 89.1956 13.1831 89.3132 14.8821H84.4339ZM59.9486 8.62655H63.7318V5.15353H59.9486V8.62655Z" fill="#FFD100"/>
</svg>
